<?xml version="1.0" encoding="utf-8"?>
<!-- Generator: Adobe Illustrator 16.0.0, SVG Export Plug-In . SVG Version: 6.00 Build 0)  -->
<!DOCTYPE svg PUBLIC "-//W3C//DTD SVG 1.1//EN" "http://www.w3.org/Graphics/SVG/1.1/DTD/svg11.dtd">
<svg version="1.1" id="Layer_1" xmlns="http://www.w3.org/2000/svg" xmlns:xlink="http://www.w3.org/1999/xlink" x="0px" y="0px"
	 width="110px" height="13.063px" viewBox="0 40.563 110 13.063" enable-background="new 0 40.563 110 13.063" xml:space="preserve"
	>
<g>
	<path fill="#D6B178" d="M9.14,47.956c0,2.696-1.147,4.015-3.499,4.015c-2.352,0-3.499-1.318-3.499-4.015v-6.883H1.033v6.883
		c0,1.549,0.382,2.772,1.147,3.69s1.95,1.377,3.48,1.377c1.549,0,2.715-0.459,3.48-1.357c0.765-0.899,1.147-2.143,1.147-3.691
		v-6.883H9.159v6.864H9.14z"/>
	<path fill="#D6B178" d="M21.167,50.958c-0.172-0.191-0.536-0.65-1.109-1.396c-0.517-0.67-0.976-1.262-1.339-1.778
		c0.459-0.344,0.88-0.803,1.243-1.358c0.42-0.631,0.631-1.3,0.631-2.027c0-1.07-0.382-1.912-1.128-2.504
		c-0.727-0.574-1.664-0.88-2.792-0.88c-0.669,0-1.529,0.039-2.543,0.115l-0.172,0.019v11.683h1.147v-4.666
		c0.765,0.058,1.625,0.076,2.543,0.076c1.434,1.971,2.313,3.117,2.677,3.5c0.382,0.401,0.784,0.688,1.205,0.898
		c0.42,0.191,0.975,0.306,1.644,0.306h0.191l0.019-0.86l-0.172-0.02C22.486,51.971,21.778,51.607,21.167,50.958 M19.407,44.361
		c0,0.765-0.249,1.434-0.746,2.008c-0.497,0.573-0.937,0.86-1.357,0.86c-0.669,0-1.415-0.019-2.18-0.077v-5.029
		c0.555-0.038,1.052-0.057,1.492-0.057c0.86,0,1.549,0.191,2.065,0.593C19.159,43.042,19.407,43.597,19.407,44.361"/>
	<path fill="#D6B178" d="M29.063,46.503c0.363-0.268,0.669-0.612,0.937-1.033c0.344-0.554,0.535-1.147,0.535-1.778
		c0-0.861-0.344-1.549-1.032-2.008c-0.65-0.44-1.453-0.669-2.352-0.669c-0.86,0-1.721,0.039-2.543,0.096l-0.172,0.019v11.645
		l0.172,0.019c0.995,0.077,2.065,0.135,3.155,0.135c1.128,0,2.046-0.268,2.715-0.822s1.013-1.357,1.013-2.41
		c0-0.745-0.268-1.434-0.803-2.045C30.229,47.134,29.694,46.751,29.063,46.503 M27.801,46.159c-0.708-0.057-1.262-0.096-1.645-0.096
		h-0.593v-3.977c0.574-0.038,1.128-0.057,1.664-0.057c0.555,0,1.071,0.153,1.511,0.439c0.439,0.287,0.631,0.669,0.631,1.186
		c0,0.536-0.153,1.033-0.478,1.472C28.604,45.566,28.241,45.91,27.801,46.159 M25.564,47.077h0.879c0.498,0,0.937,0.038,1.319,0.115
		c0.803,0.172,1.434,0.497,1.893,0.956c0.459,0.458,0.669,0.976,0.669,1.606c0,0.611-0.229,1.108-0.688,1.51
		c-0.459,0.402-1.071,0.593-1.778,0.593c-1.032,0-1.797-0.019-2.275-0.058v-4.722H25.564z"/>
	<path fill="#D6B178" d="M37.438,40.996l-4.933,11.816h1.224l1.645-3.938h4.837l1.644,3.938h1.262l-4.952-11.816H37.438z
		 M39.771,47.86h-3.996l1.645-3.958c0.095-0.249,0.21-0.516,0.325-0.841c0.077,0.21,0.21,0.478,0.382,0.86L39.771,47.86z"/>
	<path fill="#D6B178" d="M53.92,49.505c0,0.421,0,0.803,0.019,1.166c-0.229-0.286-0.497-0.612-0.803-0.976l-7.495-8.623
		l-0.058-0.058h-0.612v11.836H46.1v-8.414l-0.02-1.147c0.172,0.21,0.402,0.459,0.669,0.784l7.687,8.853h0.612V41.092H53.92V49.505z"
		/>
	<path fill="#D6B178" d="M69.694,40.9c-1.663,0-3.04,0.593-4.13,1.759s-1.625,2.601-1.625,4.302c0,1.702,0.554,3.136,1.625,4.302
		c1.09,1.166,2.485,1.76,4.13,1.76c1.663,0,3.06-0.594,4.149-1.76s1.645-2.619,1.645-4.302c0-1.702-0.555-3.136-1.645-4.302
		C72.754,41.474,71.357,40.9,69.694,40.9 M74.283,46.942c0,1.415-0.439,2.601-1.281,3.557s-1.95,1.435-3.289,1.435
		c-1.338,0-2.447-0.479-3.289-1.435c-0.841-0.956-1.28-2.161-1.28-3.557c0-1.415,0.421-2.6,1.28-3.556
		c0.842-0.937,1.951-1.415,3.289-1.415c1.339,0,2.467,0.478,3.309,1.415C73.844,44.342,74.283,45.528,74.283,46.942"/>
	<path fill="#D6B178" d="M81.473,40.996l-4.934,11.816h1.224l1.645-3.938h4.837l1.645,3.938h1.262l-4.951-11.816H81.473z
		 M83.805,47.86h-3.996l1.645-3.958c0.096-0.249,0.211-0.516,0.325-0.841c0.076,0.21,0.21,0.478,0.382,0.86L83.805,47.86z"/>
	<path fill="#D6B178" d="M92.887,46.904c-0.496-0.344-0.994-0.688-1.49-1.032c-0.479-0.325-0.899-0.688-1.225-1.109
		c-0.324-0.401-0.479-0.822-0.479-1.281c0-1.033,0.708-1.53,2.143-1.53c0.727,0,1.491,0.153,2.236,0.478l0.172,0.077l0.422-0.956
		l-0.173-0.077c-0.841-0.382-1.759-0.593-2.733-0.593c-0.995,0-1.779,0.229-2.371,0.708c-0.594,0.478-0.899,1.128-0.899,1.931
		c0,0.612,0.191,1.186,0.555,1.721c0.363,0.517,0.804,0.956,1.319,1.338c0.497,0.363,1.014,0.727,1.491,1.052
		s0.899,0.707,1.224,1.129c0.325,0.4,0.479,0.803,0.479,1.242c0,0.631-0.211,1.109-0.65,1.434c-0.459,0.345-1.128,0.517-1.988,0.517
		c-0.88,0-1.683-0.249-2.409-0.708l-0.153-0.096l-0.593,0.881l0.153,0.095c0.842,0.612,1.854,0.918,3.021,0.918
		c1.166,0,2.121-0.268,2.791-0.784c0.688-0.535,1.052-1.318,1.052-2.332c0-0.612-0.191-1.186-0.555-1.702
		C93.844,47.707,93.403,47.268,92.887,46.904"/>
	<rect x="97.705" y="41.092" fill="#D6B178" width="1.129" height="11.74"/>
	<path fill="#D6B178" d="M107.858,48.205c-0.363-0.498-0.803-0.938-1.319-1.301c-0.497-0.344-0.994-0.688-1.491-1.032
		c-0.478-0.325-0.899-0.688-1.224-1.109c-0.325-0.401-0.479-0.822-0.479-1.281c0-1.033,0.708-1.53,2.143-1.53
		c0.727,0,1.49,0.153,2.236,0.478l0.172,0.077l0.421-0.956l-0.172-0.077c-0.841-0.382-1.759-0.593-2.734-0.593
		c-0.994,0-1.778,0.229-2.371,0.708s-0.898,1.128-0.898,1.931c0,0.612,0.19,1.186,0.554,1.721c0.363,0.517,0.804,0.956,1.32,1.338
		c0.496,0.363,1.014,0.727,1.491,1.052s0.898,0.707,1.224,1.129c0.325,0.4,0.479,0.803,0.479,1.242c0,0.631-0.211,1.109-0.65,1.434
		c-0.459,0.345-1.129,0.517-1.988,0.517c-0.88,0-1.684-0.249-2.41-0.708l-0.152-0.096l-0.574,0.881l0.153,0.095
		c0.841,0.612,1.854,0.918,3.021,0.918c1.167,0,2.123-0.268,2.792-0.784c0.688-0.535,1.052-1.318,1.052-2.332
		C108.413,49.295,108.222,48.721,107.858,48.205"/>
</g>
</svg>
